<svg width="64" height="64" viewBox="0 0 64 64" fill="none" xmlns="http://www.w3.org/2000/svg">
  <rect x="4" y="4" width="56" height="56" rx="18" fill="#07C160"/>
  <path d="M26 19C16.6112 19 9 25.8081 9 34.2069C9 39.0283 11.5427 43.3164 15.4933 46.1096L14.1702 51L19.3197 48.2977C21.3667 48.9434 23.6156 49.2759 26 49.2759C35.3888 49.2759 43 42.4678 43 34.069C43 25.6701 35.3888 19 26 19Z" fill="white"/>
  <path d="M43.7233 28C36.6972 28 31 32.9874 31 39.1392C31 42.6427 32.8694 45.7637 35.7865 47.7891L34.7864 51.5L38.6966 49.4788C40.2494 49.9689 41.9547 50.2215 43.7626 50.2215C50.7887 50.2215 56.4859 45.2341 56.4859 39.0823C56.4466 32.9874 50.7494 28 43.7233 28Z" fill="#D8FFE7"/>
  <circle cx="21" cy="33" r="2.2" fill="#07C160"/>
  <circle cx="29" cy="33" r="2.2" fill="#07C160"/>
  <circle cx="40.5" cy="39.5" r="2" fill="#07C160"/>
  <circle cx="47.5" cy="39.5" r="2" fill="#07C160"/>
</svg>
